<mxfile host="app.diagrams.net" modified="2023-11-24T09:58:11.718Z" agent="Mozilla/5.0 (Windows NT 10.0; Win64; x64) AppleWebKit/537.36 (KHTML, like Gecko) Chrome/118.0.0.0 Safari/537.36 OPR/104.0.0.0" etag="ucVcKDd4Q1l-Ty-sXBNQ" version="22.1.3" type="github">
  <diagram name="Page-1" id="z8QyPYxHJEBcD_7HOVxk">
    <mxGraphModel dx="673" dy="382" grid="1" gridSize="10" guides="1" tooltips="1" connect="1" arrows="1" fold="1" page="1" pageScale="1" pageWidth="1169" pageHeight="827" math="0" shadow="0">
      <root>
        <mxCell id="0" />
        <mxCell id="1" parent="0" />
        <mxCell id="bDc552b55k-iLHALb0QE-1" value="" style="ellipse;whiteSpace=wrap;html=1;aspect=fixed;" vertex="1" parent="1">
          <mxGeometry x="190" y="90" width="80" height="80" as="geometry" />
        </mxCell>
        <mxCell id="bDc552b55k-iLHALb0QE-2" value="" style="endArrow=classic;html=1;rounded=0;" edge="1" parent="1">
          <mxGeometry width="50" height="50" relative="1" as="geometry">
            <mxPoint x="110" y="129.5" as="sourcePoint" />
            <mxPoint x="190" y="129.5" as="targetPoint" />
          </mxGeometry>
        </mxCell>
        <mxCell id="bDc552b55k-iLHALb0QE-3" value="" style="ellipse;whiteSpace=wrap;html=1;aspect=fixed;" vertex="1" parent="1">
          <mxGeometry x="350" y="90" width="80" height="80" as="geometry" />
        </mxCell>
        <mxCell id="bDc552b55k-iLHALb0QE-4" value="" style="endArrow=classic;html=1;rounded=0;entryX=0;entryY=0;entryDx=0;entryDy=0;exitX=1;exitY=0;exitDx=0;exitDy=0;" edge="1" parent="1" source="bDc552b55k-iLHALb0QE-1" target="bDc552b55k-iLHALb0QE-3">
          <mxGeometry width="50" height="50" relative="1" as="geometry">
            <mxPoint x="260" y="110.25" as="sourcePoint" />
            <mxPoint x="340" y="110.25" as="targetPoint" />
          </mxGeometry>
        </mxCell>
        <mxCell id="bDc552b55k-iLHALb0QE-5" value="" style="ellipse;whiteSpace=wrap;html=1;aspect=fixed;" vertex="1" parent="1">
          <mxGeometry x="357.5" y="97.5" width="65" height="65" as="geometry" />
        </mxCell>
        <mxCell id="bDc552b55k-iLHALb0QE-6" value="" style="endArrow=classic;html=1;rounded=0;exitX=1;exitY=0;exitDx=0;exitDy=0;entryX=0;entryY=0;entryDx=0;entryDy=0;" edge="1" parent="1" source="bDc552b55k-iLHALb0QE-3" target="bDc552b55k-iLHALb0QE-13">
          <mxGeometry width="50" height="50" relative="1" as="geometry">
            <mxPoint x="430" y="120" as="sourcePoint" />
            <mxPoint x="510" y="120" as="targetPoint" />
          </mxGeometry>
        </mxCell>
        <mxCell id="bDc552b55k-iLHALb0QE-7" value="&lt;b&gt;&lt;font style=&quot;font-size: 20px;&quot;&gt;Q0&lt;/font&gt;&lt;/b&gt;" style="text;html=1;strokeColor=none;fillColor=none;align=center;verticalAlign=middle;whiteSpace=wrap;rounded=0;" vertex="1" parent="1">
          <mxGeometry x="200" y="111.25" width="60" height="37.5" as="geometry" />
        </mxCell>
        <mxCell id="bDc552b55k-iLHALb0QE-8" value="&lt;b&gt;&lt;font style=&quot;font-size: 20px;&quot;&gt;Q1&lt;/font&gt;&lt;/b&gt;" style="text;html=1;strokeColor=none;fillColor=none;align=center;verticalAlign=middle;whiteSpace=wrap;rounded=0;" vertex="1" parent="1">
          <mxGeometry x="360" y="111.25" width="60" height="37.5" as="geometry" />
        </mxCell>
        <mxCell id="bDc552b55k-iLHALb0QE-9" value="" style="curved=1;endArrow=classic;html=1;rounded=0;exitX=0.081;exitY=0.224;exitDx=0;exitDy=0;exitPerimeter=0;" edge="1" parent="1" source="bDc552b55k-iLHALb0QE-1">
          <mxGeometry width="50" height="50" relative="1" as="geometry">
            <mxPoint x="200" y="111.25" as="sourcePoint" />
            <mxPoint x="230" y="90" as="targetPoint" />
            <Array as="points">
              <mxPoint x="180" y="91.25" />
              <mxPoint x="190" y="61.25" />
              <mxPoint x="220" y="61.25" />
            </Array>
          </mxGeometry>
        </mxCell>
        <mxCell id="bDc552b55k-iLHALb0QE-10" value="0" style="text;html=1;strokeColor=none;fillColor=none;align=center;verticalAlign=middle;whiteSpace=wrap;rounded=0;" vertex="1" parent="1">
          <mxGeometry x="190" y="40" width="60" height="30" as="geometry" />
        </mxCell>
        <mxCell id="bDc552b55k-iLHALb0QE-11" value="1" style="text;html=1;strokeColor=none;fillColor=none;align=center;verticalAlign=middle;whiteSpace=wrap;rounded=0;" vertex="1" parent="1">
          <mxGeometry x="280" y="70" width="60" height="30" as="geometry" />
        </mxCell>
        <mxCell id="bDc552b55k-iLHALb0QE-12" value="" style="endArrow=classic;html=1;rounded=0;entryX=1;entryY=1;entryDx=0;entryDy=0;exitX=0;exitY=1;exitDx=0;exitDy=0;" edge="1" parent="1" source="bDc552b55k-iLHALb0QE-3" target="bDc552b55k-iLHALb0QE-1">
          <mxGeometry width="50" height="50" relative="1" as="geometry">
            <mxPoint x="340" y="160" as="sourcePoint" />
            <mxPoint x="350" y="280" as="targetPoint" />
          </mxGeometry>
        </mxCell>
        <mxCell id="bDc552b55k-iLHALb0QE-13" value="" style="ellipse;whiteSpace=wrap;html=1;aspect=fixed;" vertex="1" parent="1">
          <mxGeometry x="510" y="90" width="80" height="80" as="geometry" />
        </mxCell>
        <mxCell id="bDc552b55k-iLHALb0QE-15" value="0" style="text;html=1;strokeColor=none;fillColor=none;align=center;verticalAlign=middle;whiteSpace=wrap;rounded=0;" vertex="1" parent="1">
          <mxGeometry x="280" y="132.5" width="60" height="30" as="geometry" />
        </mxCell>
        <mxCell id="bDc552b55k-iLHALb0QE-16" value="" style="endArrow=classic;html=1;rounded=0;exitX=0;exitY=1;exitDx=0;exitDy=0;entryX=1;entryY=1;entryDx=0;entryDy=0;" edge="1" parent="1" source="bDc552b55k-iLHALb0QE-13" target="bDc552b55k-iLHALb0QE-3">
          <mxGeometry width="50" height="50" relative="1" as="geometry">
            <mxPoint x="428" y="112" as="sourcePoint" />
            <mxPoint x="532" y="112" as="targetPoint" />
          </mxGeometry>
        </mxCell>
        <mxCell id="bDc552b55k-iLHALb0QE-17" value="1" style="text;html=1;strokeColor=none;fillColor=none;align=center;verticalAlign=middle;whiteSpace=wrap;rounded=0;" vertex="1" parent="1">
          <mxGeometry x="440" y="70" width="60" height="30" as="geometry" />
        </mxCell>
        <mxCell id="bDc552b55k-iLHALb0QE-18" value="1" style="text;html=1;strokeColor=none;fillColor=none;align=center;verticalAlign=middle;whiteSpace=wrap;rounded=0;" vertex="1" parent="1">
          <mxGeometry x="440" y="132.5" width="60" height="30" as="geometry" />
        </mxCell>
        <mxCell id="bDc552b55k-iLHALb0QE-19" value="0" style="text;html=1;strokeColor=none;fillColor=none;align=center;verticalAlign=middle;whiteSpace=wrap;rounded=0;" vertex="1" parent="1">
          <mxGeometry x="530" y="40" width="60" height="30" as="geometry" />
        </mxCell>
        <mxCell id="bDc552b55k-iLHALb0QE-20" value="" style="curved=1;endArrow=classic;html=1;rounded=0;exitX=1;exitY=0;exitDx=0;exitDy=0;entryX=0.5;entryY=0;entryDx=0;entryDy=0;" edge="1" parent="1" source="bDc552b55k-iLHALb0QE-13" target="bDc552b55k-iLHALb0QE-13">
          <mxGeometry width="50" height="50" relative="1" as="geometry">
            <mxPoint x="626" y="90" as="sourcePoint" />
            <mxPoint x="660" y="72" as="targetPoint" />
            <Array as="points">
              <mxPoint x="600" y="80" />
              <mxPoint x="590" y="60" />
              <mxPoint x="570" y="60" />
              <mxPoint x="560" y="73" />
            </Array>
          </mxGeometry>
        </mxCell>
        <mxCell id="bDc552b55k-iLHALb0QE-21" value="&lt;b&gt;&lt;font style=&quot;font-size: 20px;&quot;&gt;Q2&lt;/font&gt;&lt;/b&gt;" style="text;html=1;strokeColor=none;fillColor=none;align=center;verticalAlign=middle;whiteSpace=wrap;rounded=0;" vertex="1" parent="1">
          <mxGeometry x="520" y="111.25" width="60" height="37.5" as="geometry" />
        </mxCell>
        <mxCell id="bDc552b55k-iLHALb0QE-22" value="START" style="text;html=1;strokeColor=none;fillColor=none;align=center;verticalAlign=middle;whiteSpace=wrap;rounded=0;" vertex="1" parent="1">
          <mxGeometry x="100" y="100" width="60" height="30" as="geometry" />
        </mxCell>
      </root>
    </mxGraphModel>
  </diagram>
</mxfile>
